<svg viewBox="0 0 896 504" height="504" width="896" xmlns="http://www.w3.org/2000/svg" version="1.1"><g transform-origin="center" transform="scale(1, 1) rotate(0)"><rect x="0" y="0" width="896" height="504" fill="#00243800"></rect><linearGradient id="linear-gradient-r4"><stop offset="0%" stop-color="#CB48B7" stop-opacity="100%"></stop><stop offset="100%" stop-color="#2E2D4D" stop-opacity="100%"></stop></linearGradient><path d="M0 184.90634549271314 0,184.90634549271314 C 22.400000000000002,182.19655362582205 67.19999999999999,175.2622741423398 112,171.3573861582577 C 156.8,167.4524981741756 179.2,167.51984510866552 224,165.38190557230263 C 268.8,163.24396603593974 291.2,158.92176500619203 336,160.6676884764433 C 380.8,162.41361194669454 403.2,169.14857540577648 448,174.11152292355894 C 492.8,179.0744704413414 515.2,189.00376975109427 560,185.48242606535553 C 604.8,181.96108237961678 627.2,155.37753469824045 672,156.50480449486523 C 716.8,157.63207429149 739.2,192.6301014745161 784,191.11877504847942 C 828.8,189.60744862244277 873.6,157.38229290144145 896,148.94817236468194" fill="none" stroke-linecap="round" stroke-width="2" style="transition: all 0.4s cubic-bezier(0.16, 1, 0.3, 1) 0s;" stroke="url(#linear-gradient-r4)"></path><path d="M0 220.2122892882923 0,220.2122892882923 C 22.400000000000002,216.46318548057351 67.19999999999999,207.61091300844402 112,201.4667702496983 C 156.8,195.3226274909526 179.2,182.45758791862428 224,189.49157549456382 C 268.8,196.52556307050335 291.2,236.49455197476843 336,236.63670812939603 C 380.8,236.77886428402363 403.2,202.4578718332549 448,190.20235626770182 C 492.8,177.94684070214876 515.2,167.61032423023133 560,175.35913030163073 C 604.8,183.10793637303013 627.2,216.8508261403677 672,228.94638662469882 C 716.8,241.04194710902993 739.2,246.86232452449696 784,235.83693272328622 C 828.8,224.8115409220755 873.6,186.22292863957333 896,173.8194276186451" fill="none" stroke-linecap="round" stroke-width="2" style="transition: all 0.4s cubic-bezier(0.16, 1, 0.3, 1) 0s;" stroke="url(#linear-gradient-r4)"></path><path d="M0 224.48698198715846 0,224.48698198715846 C 22.400000000000002,235.25121134807665 67.19999999999999,273.22371337749564 112,278.3081287917495 C 156.8,283.3925442060034 179.2,264.9553714566628 224,249.9090590584278 C 268.8,234.86274666019278 291.2,212.3578094269037 336,203.07656680057445 C 380.8,193.7953241742452 403.2,194.24831990667184 448,203.50284592678148 C 492.8,212.75737194689114 515.2,240.19988399467866 560,249.34919690112272 C 604.8,258.4985098075668 627.2,257.58365972234805 672,249.24941045900184 C 716.8,240.91516119565563 739.2,208.00009966041642 784,207.67795058439174 C 828.8,207.35580150836705 873.6,239.64652217998105 896,247.63866507887838" fill="none" stroke-linecap="round" stroke-width="2" style="transition: all 0.4s cubic-bezier(0.16, 1, 0.3, 1) 0s;" stroke="url(#linear-gradient-r4)"></path><path d="M0 228.52469730461019 0,228.52469730461019 C 22.4,239.51823955860738 67.19999999999999,271.80985026731344 112,283.4924085745961 C 156.8,295.17496688187873 179.2,279.9804169082083 224,286.9374888410233 C 268.8,293.8945607738383 291.2,320.1669196837321 336,318.2777682386711 C 380.8,316.38861679361014 403.2,290.04531470173976 448,277.4917316157185 C 492.8,264.93814852969723 515.2,247.92385502275454 560,255.50985280856491 C 604.8,263.0958505943753 627.2,302.83754040269184 672,315.4217205447704 C 716.8,328.0059006868489 739.2,330.65379347280043 784,318.43075351895766 C 828.8,306.2077135651149 873.6,267.1313673242368 896,254.30652077555658" fill="none" stroke-linecap="round" stroke-width="2" style="transition: all 0.4s cubic-bezier(0.16, 1, 0.3, 1) 0s;" stroke="url(#linear-gradient-r4)"></path><path d="M0 257.0441287423422 0,257.0441287423422 C 22.400000000000002,265.2175370571017 67.19999999999999,280.37452002691725 112,297.9111703161399 C 156.8,315.4478206053625 179.2,352.72312598574905 224,344.7273801884552 C 268.8,336.7316343911613 291.2,272.8439824390933 336,257.93244132967044 C 380.8,243.0209002202476 403.2,252.5277085748017 448,270.169674641341 C 492.8,287.81164070788026 515.2,335.50810407686487 560,346.1422716623669 C 604.8,356.776439247869 627.2,327.7977971047089 672,323.34051256885135 C 716.8,318.8832280329938 739.2,336.9906041591118 784,323.8558489830792 C 828.8,310.72109380704666 873.6,270.90455914756654 896,257.6667366886884" fill="none" stroke-linecap="round" stroke="url(#linear-gradient-r4)" stroke-width="2" style="transition: all 0.4s cubic-bezier(0.16, 1, 0.3, 1) 0s;"></path></g></svg>