<svg viewBox="0 0 896 504" height="504" width="896" xmlns="http://www.w3.org/2000/svg" version="1.1"><g transform-origin="center" transform="scale(1, 1) rotate(0)"><rect x="0" y="0" width="896" height="504" fill="#131316"></rect><linearGradient id="linear-gradient-r2"><stop offset="0%" stop-color="#2f4f4f" stop-opacity="100%"></stop><stop offset="100%" stop-color="#47fcbc00" stop-opacity="100%"></stop></linearGradient><g><path d="M 1007.2889517584117 226.88895175841174 C932.0633839982363 500.22228509174505 788.622285091745 759.6965111694342 515.2889517584117 718.8889517584116  C241.95561842507846 678.081392347389 149.01687252349768 500.22228509174505 23.28895175841176 226.88895175841174  C-102.43896900667414 -46.44438157492159 241.95561842507846 -23.256277846579803 515.2889517584117 -265.11104824158826  C788.622285091745 -506.96581863659674 1082.5145195185871 -46.44438157492159 1007.2889517584117 226.88895175841174" fill="none" stroke-linecap="round" stroke="url(#linear-gradient-r2)" stroke-width="20" style="transform-origin: center center; transform: scale(1.2) translate(0px, 2px); transition: all 0.4s cubic-bezier(0.16, 1, 0.3, 1) 0s;"></path><path d="M 995.6889517584117 218.48895175841176 C936.0740997607435 472.93339620285616 792.1333962028561 708.8281774646225 537.6889517584117 676.4889517584118  C283.2445073139673 644.149726052201 179.3259716115627 472.93339620285616 79.68895175841173 218.48895175841176  C-19.94806809473921 -35.955492686032684 283.2445073139673 -47.845677393281434 537.6889517584117 -239.51104824158824  C792.1333962028561 -431.1764190898951 1055.3038037560798 -35.955492686032684 995.6889517584117 218.48895175841176" fill="none" stroke-linecap="round" stroke="url(#linear-gradient-r2)" stroke-width="10" style="transform-origin: center center; transform: scale(1.2) translate(0px, 2px); transition: all 0.4s cubic-bezier(0.16, 1, 0.3, 1) 0s;"></path><path d="M 972.8889517584116 214.28895175841174 C921.5395132215907 449.8445073139673 784.4445073139672 666.1444445942305 548.8889517584116 638.2889517584117  C313.33339620285614 610.4334589225929 210.71160929250243 449.8445073139673 124.88895175841166 214.28895175841174  C39.0662942243209 -21.266603797143812 313.33339620285614 -44.61948380396983 548.8889517584116 -209.71104824158826  C784.4445073139672 -374.8026126792067 1024.2383902952326 -21.266603797143812 972.8889517584116 214.28895175841174" fill="none" stroke-linecap="round" stroke="url(#linear-gradient-r2)" stroke-width="6.666666666666667" style="transform-origin: center center; transform: scale(1.2) translate(0px, 2px); transition: all 0.4s cubic-bezier(0.16, 1, 0.3, 1) 0s;"></path><path d="M 945.6089517584116 211.76895175841176 C899.4846060620723 428.4356184250784 772.2756184250783 626.7899922548899 555.6089517584116 601.7689517584117  C338.9422850917451 576.7479112619336 242.69867342776212 428.4356184250784 165.6089517584117 211.76895175841176  C88.5192300890613 -4.897714908254909 338.9422850917451 -29.938474716954328 555.6089517584116 -178.23104824158824  C772.2756184250783 -326.52362176622216 991.733297454751 -4.897714908254909 945.6089517584116 211.76895175841176" fill="none" stroke-linecap="round" stroke="url(#linear-gradient-r2)" stroke-width="5" style="transform-origin: center center; transform: scale(1.2) translate(0px, 2px); transition: all 0.4s cubic-bezier(0.16, 1, 0.3, 1) 0s;"></path><path d="M 916.0889517584117 210.08895175841175 C873.6184742785108 407.86672953618955 757.8667295361895 589.1278810025332 560.0889517584117 566.0889517584117  C362.31117398063395 543.0500225142902 275.0717969058458 407.86672953618955 204.08895175841172 210.08895175841175  C133.1061066109776 12.31117398063397 362.31117398063395 -9.365883009805696 560.0889517584117 -145.91104824158825  C757.8667295361895 -282.45621347337084 958.5594292383125 12.31117398063397 916.0889517584117 210.08895175841175" fill="none" stroke-linecap="round" stroke="url(#linear-gradient-r2)" stroke-width="4" style="transform-origin: center center; transform: scale(1.2) translate(0px, 2px); transition: all 0.4s cubic-bezier(0.16, 1, 0.3, 1) 0s;"></path><path d="M 885.2889517584117 208.88895175841176 C845.5457170932996 387.77784064730065 742.1778406473006 552.4484355625522 563.2889517584117 530.8889517584117  C384.40006286952286 509.3294679542713 307.7136316605124 387.77784064730065 241.28895175841177 208.88895175841176  C174.86427185631112 30.000062869522868 384.40006286952286 14.665865657282954 563.2889517584117 -113.11104824158825  C742.1778406473006 -240.88796214045942 925.0321864235239 30.000062869522868 885.2889517584117 208.88895175841176" fill="none" stroke-linecap="round" stroke="url(#linear-gradient-r2)" stroke-width="3.3333333333333335" style="transform-origin: center center; transform: scale(1.2) translate(0px, 2px); transition: all 0.4s cubic-bezier(0.16, 1, 0.3, 1) 0s;"></path><path d="M 853.6889517584116 207.98895175841176 C816.0761678783239 367.98895175841176 725.6889517584116 516.3927314639229 565.6889517584116 495.98895175841176  C405.68895175841163 475.5851720529005 340.55291214095456 367.98895175841176 277.68895175841163 207.98895175841176  C214.8249913758687 47.988951758411744 405.68895175841163 40.91633695591595 565.6889517584116 -80.01104824158826  C725.6889517584116 -200.93843343909245 891.3017356384993 47.988951758411744 853.6889517584116 207.98895175841176" fill="none" stroke-linecap="round" stroke="url(#linear-gradient-r2)" stroke-width="2.857142857142857" style="transform-origin: center center; transform: scale(1.2) translate(0px, 2px); transition: all 0.4s cubic-bezier(0.16, 1, 0.3, 1) 0s;"></path><path d="M 821.5556184250784 207.28895175841174 C785.6639011483445 348.40006286952286 708.6667295361895 480.759105706646 567.5556184250784 461.28895175841177  C426.44450731396734 441.81879781017756 373.5430817338105 348.40006286952286 313.5556184250784 207.28895175841174  C253.56815511634636 66.17784064730061 426.44450731396734 68.68300326921401 567.5556184250784 -46.71104824158827  C708.6667295361895 -162.10509975239054 857.4473357018122 66.17784064730061 821.5556184250784 207.28895175841174" fill="none" stroke-linecap="round" stroke="url(#linear-gradient-r2)" stroke-width="2.5" style="transform-origin: center center; transform: scale(1.2) translate(0px, 2px); transition: all 0.4s cubic-bezier(0.16, 1, 0.3, 1) 0s;"></path><path d="M 789.0489517584116 206.72895175841177 C754.5838380810665 328.951173980634 691.2711739806338 445.4252170824533 569.0489517584116 426.72895175841177  C446.8267295361894 408.03268643437025 406.6520674357777 328.951173980634 349.04895175841165 206.72895175841177  C291.44583608104557 84.50672953618954 446.8267295361894 97.53638602925051 569.0489517584116 -13.271048241588243  C691.2711739806338 -124.078482512427 823.5140654357567 84.50672953618954 789.0489517584116 206.72895175841177" fill="none" stroke-linecap="round" stroke="url(#linear-gradient-r2)" stroke-width="2.2222222222222223" style="transform-origin: center center; transform: scale(1.2) translate(0px, 2px); transition: all 0.4s cubic-bezier(0.16, 1, 0.3, 1) 0s;"></path><path d="M 756.2707699402298 206.2707699402299 C723.0124850986584 309.6041032735632 673.6041032735632 410.3123676973642 570.2707699402298 392.2707699402299  C466.93743660689654 374.2291721830956 439.8568575677059 309.6041032735632 384.27076994022985 206.2707699402299  C328.6846823127538 102.93743660689657 466.93743660689654 127.19817618771569 570.2707699402298 20.2707699402299  C673.6041032735632 -86.6566363072559 789.5290547818012 102.93743660689657 756.2707699402298 206.2707699402299" fill="none" stroke-linecap="round" stroke="url(#linear-gradient-r2)" stroke-width="2" style="transform-origin: center center; transform: scale(1.2) translate(0px, 2px); transition: all 0.4s cubic-bezier(0.16, 1, 0.3, 1) 0s;"></path><path d="M 723.2889517584117 205.88895175841174 C691.0685365977964 290.3333962028562 655.7333962028562 375.36753709932157 571.2889517584117 357.88895175841174  C486.8445073139673 340.4103664175019 473.1404004739192 290.3333962028562 419.28895175841177 205.88895175841174  C365.4375030429043 121.44450731396728 486.8445073139673 157.4795439297602 571.2889517584117 53.88895175841172  C655.7333962028562 -49.701640412936754 755.509366919027 121.44450731396728 723.2889517584117 205.88895175841174" fill="none" stroke-linecap="round" stroke="url(#linear-gradient-r2)" stroke-width="1.8181818181818181" style="transform-origin: center center; transform: scale(1.2) translate(0px, 2px); transition: all 0.4s cubic-bezier(0.16, 1, 0.3, 1) 0s;"></path></g></g></svg>