<svg viewBox="0 0 900 450" height="450" width="900" xmlns="http://www.w3.org/2000/svg" version="1.1"><g transform-origin="center" transform="scale(1, 1) rotate(0)"><rect x="0" y="0" width="900" height="450" fill="#0a1a3200"></rect><linearGradient id="linear-gradient-r1"><stop offset="0%" stop-color="#2e2d4d" stop-opacity="100%"></stop><stop offset="100%" stop-color="#CB48B7" stop-opacity="100%"></stop></linearGradient><g><path d="M 901.937081074994 168.68708107499407 C1006.2483465959854 385.14541440832744 598.8954144083274 662.4150079380735 382.43708107499407 688.187081074994  C165.97874774166073 713.9591542119146 123.50748939798255 385.14541440832744 -137.06291892500593 168.68708107499407  C-397.63332724799443 -47.77125225833929 165.97874774166073 -226.63185402685804 382.43708107499407 -350.81291892500593  C598.8954144083274 -474.9939838231538 797.6258155540027 -47.77125225833929 901.937081074994 168.68708107499407" fill="none" stroke-linecap="round" stroke="url(#linear-gradient-r1)" stroke-width="5" style="transform-origin: center center; transform: scale(1.6) translate(-135px, 464px); transition: all 0.4s cubic-bezier(0.16, 1, 0.3, 1) 0s;"></path><path d="M 835.437081074994 149.93708107499407 C918.1018032017635 348.06208107499407 558.062081074994 605.013196331063 359.93708107499407 625.437081074994  C161.81208107499407 645.860965818925 90.93424406976236 348.06208107499407 -115.56291892500595 149.93708107499407  C-322.06008191977423 -48.187918925005945 161.81208107499407 -227.1517533434136 359.93708107499407 -325.56291892500593  C558.062081074994 -423.9740845065983 752.7723589482246 -48.187918925005945 835.437081074994 149.93708107499407" fill="none" stroke-linecap="round" stroke="url(#linear-gradient-r1)" stroke-width="2.5" style="transform-origin: center center; transform: scale(1.6) translate(-135px, 464px); transition: all 0.4s cubic-bezier(0.16, 1, 0.3, 1) 0s;"></path><path d="M 780.187081074994 140.56208107499407 C851.3905970742951 320.35374774166075 528.4787477416608 554.4699043069862 348.68708107499407 572.062081074994  C168.89541440832738 589.6542578430018 95.05405589600853 320.35374774166075 -82.81291892500595 140.56208107499407  C-260.6798937460204 -39.22958559167263 168.89541440832738 -206.17115478766402 348.68708107499407 -290.93791892500593  C528.4787477416608 -375.70468306234784 708.9835650756929 -39.22958559167263 780.187081074994 140.56208107499407" fill="none" stroke-linecap="round" stroke="url(#linear-gradient-r1)" stroke-width="1.6666666666666667" style="transform-origin: center center; transform: scale(1.6) translate(-135px, 464px); transition: all 0.4s cubic-bezier(0.16, 1, 0.3, 1) 0s;"></path><path d="M 729.437081074994 134.93708107499407 C793.3952407030022 296.39541440832744 503.39541440832744 506.6350067793452 341.93708107499407 522.437081074994  C180.47874774166073 538.239155370643 114.20509545598368 296.39541440832744 -45.562918925005945 134.93708107499407  C-205.33093330599556 -26.521252258339285 180.47874774166073 -176.42164758808133 341.93708107499407 -252.56291892500593  C503.39541440832744 -328.70419026193053 665.4789214469859 -26.521252258339285 729.437081074994 134.93708107499407" fill="none" stroke-linecap="round" stroke="url(#linear-gradient-r1)" stroke-width="1.25" style="transform-origin: center center; transform: scale(1.6) translate(-135px, 464px); transition: all 0.4s cubic-bezier(0.16, 1, 0.3, 1) 0s;"></path><path d="M 680.937081074994 131.18708107499407 C739.8286173586796 274.31208107499407 480.56208107499407 460.13681200608585 337.43708107499407 474.68708107499407  C194.31208107499407 489.2373501439023 141.0486282273004 274.31208107499407 -6.062918925005943 131.18708107499407  C-153.17446607731227 -11.937918925005942 194.31208107499407 -142.2033899813243 337.43708107499407 -212.31291892500593  C480.56208107499407 -282.4224478686876 622.0455447913084 -11.937918925005942 680.937081074994 131.18708107499407" fill="none" stroke-linecap="round" stroke="url(#linear-gradient-r1)" stroke-width="1" style="transform-origin: center center; transform: scale(1.6) translate(-135px, 464px); transition: all 0.4s cubic-bezier(0.16, 1, 0.3, 1) 0s;"></path><path d="M 633.7227953607082 128.50850964642262 C688.8326101118879 253.3001763130893 459.01446202737503 414.39258648380195 334.22279536070835 428.0085096464226  C209.43112869404166 441.6244328090433 172.38757069055387 253.3001763130893 34.72279536070833 128.50850964642262  C-102.9419799691372 3.716842979755941 209.43112869404166 -105.38404663251582 334.22279536070835 -170.99149035357738  C459.01446202737503 -236.59893407463895 578.6129806095286 3.716842979755941 633.7227953607082 128.50850964642262" fill="none" stroke-linecap="round" stroke="url(#linear-gradient-r1)" stroke-width="0.8333333333333334" style="transform-origin: center center; transform: scale(1.6) translate(-135px, 464px); transition: all 0.4s cubic-bezier(0.16, 1, 0.3, 1) 0s;"></path><path d="M 587.312081074994 126.49958107499405 C639.4677138354897 232.9579144083274 438.27041440832744 369.1135445065338 331.81208107499407 381.99958107499407  C225.35374774166073 394.88561764345434 206.5972852364883 232.9579144083274 76.31208107499405 126.49958107499405  C-53.973123086500166 20.041247741660715 225.35374774166073 -66.90988647593201 331.81208107499407 -129.00041892500593  C438.27041440832744 -191.09095137407985 535.1564483144983 20.041247741660715 587.312081074994 126.49958107499405" fill="none" stroke-linecap="round" stroke="url(#linear-gradient-r1)" stroke-width="0.7142857142857143" style="transform-origin: center center; transform: scale(1.6) translate(-135px, 464px); transition: all 0.4s cubic-bezier(0.16, 1, 0.3, 1) 0s;"></path><path d="M 541.437081074994 124.93708107499405 C591.2062029617653 213.06208107499407 418.06208107499407 324.1406772031796 329.93708107499407 336.43708107499407  C241.81208107499407 348.7334849468085 242.76076123687307 213.06208107499407 118.43708107499405 124.93708107499405  C-5.88659908688494 36.812081074994055 241.81208107499407 -27.3134934283778 329.93708107499407 -86.56291892500595  C418.06208107499407 -145.81234442163407 491.6679591882228 36.812081074994055 541.437081074994 124.93708107499405" fill="none" stroke-linecap="round" stroke="url(#linear-gradient-r1)" stroke-width="0.625" style="transform-origin: center center; transform: scale(1.6) translate(-135px, 464px); transition: all 0.4s cubic-bezier(0.16, 1, 0.3, 1) 0s;"></path><path d="M 495.93708107499407 123.68708107499405 C543.7280081633761 193.47874774166075 398.22874774166075 279.3794276825121 328.43708107499407 291.18708107499407  C258.6454144083274 302.99473446747606 280.3192141874326 193.47874774166075 160.93708107499407 123.68708107499405  C41.55494796255552 53.89541440832738 258.6454144083274 13.08149404816184 328.43708107499407 -43.812918925005945  C398.22874774166075 -100.70733189817373 448.1461539866119 53.89541440832738 495.93708107499407 123.68708107499405" fill="none" stroke-linecap="round" stroke="url(#linear-gradient-r1)" stroke-width="0.5555555555555556" style="transform-origin: center center; transform: scale(1.6) translate(-135px, 464px); transition: all 0.4s cubic-bezier(0.16, 1, 0.3, 1) 0s;"></path><path d="M 450.7098083477214 122.66435380226677 C496.82729053066777 174.12268713560013 378.6681416810547 234.7701566580442 327.2098083477214 246.1643538022668  C275.75147501438806 257.5585509464894 318.91166217644565 174.12268713560013 203.70980834772138 122.66435380226677  C88.50795451899707 71.20602046893343 275.75147501438806 54.066554626847676 327.2098083477214 -0.835646197733223  C378.6681416810547 -55.73784702231413 404.592326164775 71.20602046893343 450.7098083477214 122.66435380226677" fill="none" stroke-linecap="round" stroke="url(#linear-gradient-r1)" stroke-width="0.5" style="transform-origin: center center; transform: scale(1.6) translate(-135px, 464px); transition: all 0.4s cubic-bezier(0.16, 1, 0.3, 1) 0s;"></path><path d="M 405.68708107499407 121.81208107499405 C450.36540496256487 154.93708107499407 359.31208107499407 190.27345523612163 326.18708107499407 201.31208107499407  C293.06208107499407 212.3507069138665 358.29390551936126 154.93708107499407 246.68708107499407 121.81208107499405  C135.08025663062688 88.68708107499405 293.06208107499407 95.50098459861582 326.18708107499407 42.312081074994055  C359.31208107499407 -10.876822448627703 361.00875718742327 88.68708107499405 405.68708107499407 121.81208107499405" fill="none" stroke-linecap="round" stroke="url(#linear-gradient-r1)" stroke-width="0.45454545454545453" style="transform-origin: center center; transform: scale(1.6) translate(-135px, 464px); transition: all 0.4s cubic-bezier(0.16, 1, 0.3, 1) 0s;"></path><path d="M 360.8216964596095 121.09092722884021 C404.2453981207591 135.8825938955069 340.11336312627617 145.8622795655468 325.3216964596095 156.59092722884023  C310.5300297929428 167.31957489213366 398.29446415376043 135.8825938955069 289.8216964596095 121.09092722884021  C181.34892876545857 106.29926056217354 310.5300297929428 137.28622099378723 325.3216964596095 85.59092722884021  C340.11336312627617 33.895633463893226 317.3979947984599 106.29926056217354 360.8216964596095 121.09092722884021" fill="none" stroke-linecap="round" stroke="url(#linear-gradient-r1)" stroke-width="0.4166666666666667" style="transform-origin: center center; transform: scale(1.6) translate(-135px, 464px); transition: all 0.4s cubic-bezier(0.16, 1, 0.3, 1) 0s;"></path></g></g></svg>