<svg viewBox="0 0 896 504" height="504" width="896" xmlns="http://www.w3.org/2000/svg" version="1.1"><g transform-origin="center" transform="scale(1, 1) rotate(0)"><rect x="0" y="0" width="896" height="504" fill="#2E2D4D"></rect><linearGradient id="linear-gradient-r1"><stop offset="0%" stop-color="#2E2D4D" stop-opacity="100%"></stop><stop offset="100%" stop-color="#CB48B7" stop-opacity="100%"></stop></linearGradient><g><path d="M 1199.8206112311686 315.22061123116873 C1394.847962440683 824.451380461938 1047.051380461938 1078.428345439056 537.8206112311686 977.2206112311687  C28.589842000399415 876.0128770232812 -10.593874407191606 824.451380461938 -124.17938876883136 315.22061123116873  C-237.7649031304711 -194.0101579996005 28.589842000399415 -60.50117333001447 537.8206112311686 -346.77938876883127  C1047.051380461938 -633.0576042076481 1004.7932600216543 -194.0101579996005 1199.8206112311686 315.22061123116873" fill="none" stroke-linecap="round" stroke="url(#linear-gradient-r1)" stroke-width="20" style="transform-origin: center center; transform: scale(0.9) translate(0px, 458px); transition: all 0.4s cubic-bezier(0.16, 1, 0.3, 1) 0s;"></path><path d="M 1210.6872778978354 336.22061123116873 C1365.242797038863 830.8359958465533 1062.30266251322 1059.4258429823965 567.6872778978354 979.2206112311687  C73.07189328245084 899.0153794799411 14.701668341997106 830.8359958465533 -75.31272210216457 336.22061123116873  C-165.32711254632625 -158.39477338421585 73.07189328245084 -79.90927064688276 567.6872778978354 -306.77938876883127  C1062.30266251322 -533.6495068907798 1056.1317587568078 -158.39477338421585 1210.6872778978354 336.22061123116873" fill="none" stroke-linecap="round" stroke="url(#linear-gradient-r1)" stroke-width="10" style="transform-origin: center center; transform: scale(0.9) translate(0px, 458px); transition: all 0.4s cubic-bezier(0.16, 1, 0.3, 1) 0s;"></path><path d="M 1206.6206112311688 346.72061123116873 C1339.747489260977 826.7206112311687 1062.6206112311688 1039.8056375313638 582.6206112311687 970.7206112311687  C102.62061123116871 901.6355849309737 36.154786938300845 826.7206112311687 -41.37938876883129 346.72061123116873  C-118.91356447596343 -133.27938876883127 102.62061123116871 -81.86410556390149 582.6206112311687 -277.27938876883127  C1062.6206112311688 -472.69467197376105 1073.4937332013606 -133.27938876883127 1206.6206112311688 346.72061123116873" fill="none" stroke-linecap="round" stroke="url(#linear-gradient-r1)" stroke-width="6.666666666666667" style="transform-origin: center center; transform: scale(0.9) translate(0px, 458px); transition: all 0.4s cubic-bezier(0.16, 1, 0.3, 1) 0s;"></path><path d="M 1196.5806112311689 353.0206112311688 C1316.1610841377658 818.4052266157842 1056.965226615784 1020.0758493468876 591.5806112311687 958.0206112311688  C126.19599584655339 895.96537311545 56.22525050082882 818.4052266157842 -13.419388768831254 353.0206112311688  C-83.06402803849133 -112.36400415344656 126.19599584655339 -76.4487046226156 591.5806112311687 -251.9793887688312  C1056.965226615784 -427.5100729150468 1077.000138324572 -112.36400415344656 1196.5806112311689 353.0206112311688" fill="none" stroke-linecap="round" stroke="url(#linear-gradient-r1)" stroke-width="5" style="transform-origin: center center; transform: scale(0.9) translate(0px, 458px); transition: all 0.4s cubic-bezier(0.16, 1, 0.3, 1) 0s;"></path><path d="M 1183.553944564502 357.22061123116873 C1293.661518014993 807.9898420003994 1048.3231753337327 1000.3599712180725 597.553944564502 943.2206112311687  C146.78471379527122 886.081251244265 75.6814902032181 807.9898420003994 11.55394456450199 357.22061123116873  C-52.573601074214125 -93.54861953806204 146.78471379527122 -67.1538555386633 597.553944564502 -228.77938876883127  C1048.3231753337327 -390.40492199899927 1073.446371114011 -93.54861953806204 1183.553944564502 357.22061123116873" fill="none" stroke-linecap="round" stroke="url(#linear-gradient-r1)" stroke-width="4" style="transform-origin: center center; transform: scale(0.9) translate(0px, 458px); transition: all 0.4s cubic-bezier(0.16, 1, 0.3, 1) 0s;"></path><path d="M 1168.8206112311686 360.22061123116873 C1271.8576239918536 796.3744573850149 1037.9744573850148 980.6907657319872 601.8206112311688 927.2206112311687  C165.66676507732262 873.7504567303503 94.83020486060987 796.3744573850149 34.820611231168755 360.22061123116873  C-25.18898239827236 -75.9332349226774 165.66676507732262 -55.53264335419894 601.8206112311688 -206.77938876883127  C1037.9744573850148 -358.02613418346357 1065.7835984704836 -75.9332349226774 1168.8206112311686 360.22061123116873" fill="none" stroke-linecap="round" stroke="url(#linear-gradient-r1)" stroke-width="3.3333333333333335" style="transform-origin: center center; transform: scale(0.9) translate(0px, 458px); transition: all 0.4s cubic-bezier(0.16, 1, 0.3, 1) 0s;"></path><path d="M 1153.0206112311687 362.47061123116873 C1250.5342868359257 784.0090727696303 1026.5590727696303 961.0744783351124 605.0206112311687 910.4706112311687  C183.48214969270714 859.866744127225 113.81336841198856 784.0090727696303 57.02061123116869 362.47061123116873  C0.22785405034881734 -59.067850307292815 183.48214969270714 -42.390281049422896 605.0206112311687 -185.52938876883127  C1026.5590727696303 -328.6684964882396 1055.5069356264116 -59.067850307292815 1153.0206112311687 362.47061123116873" fill="none" stroke-linecap="round" stroke="url(#linear-gradient-r1)" stroke-width="2.857142857142857" style="transform-origin: center center; transform: scale(0.9) translate(0px, 458px); transition: all 0.4s cubic-bezier(0.16, 1, 0.3, 1) 0s;"></path><path d="M 1136.5095001200575 364.22061123116873 C1229.5611946337933 771.1436881542456 1014.4325770431344 941.5089723637701 607.5095001200575 893.2206112311687  C200.5864231969806 844.9322500985674 132.7035632502613 771.1436881542456 78.50950012005751 364.22061123116873  C24.315436989853723 -42.70246569190817 200.5864231969806 -28.18996741975718 607.5095001200575 -164.77938876883127  C1014.4325770431344 -301.36881011790535 1043.4578056063217 -42.70246569190817 1136.5095001200575 364.22061123116873" fill="none" stroke-linecap="round" stroke="url(#linear-gradient-r1)" stroke-width="2.5" style="transform-origin: center center; transform: scale(0.9) translate(0px, 458px); transition: all 0.4s cubic-bezier(0.16, 1, 0.3, 1) 0s;"></path><path d="M 1119.5006112311685 365.6206112311687 C1208.8537398251126 757.928303538861 1001.8083035388609 921.9896340030779 609.5006112311686 875.6206112311687  C217.19291892347627 829.2515884592596 151.54059951087288 757.928303538861 99.50061123116859 365.6206112311687  C47.460622951464316 -26.68708107652361 217.19291892347627 -13.219046185551832 609.5006112311686 -144.3793887688313  C1001.8083035388609 -275.5397313521107 1030.1474826372244 -26.68708107652361 1119.5006112311685 365.6206112311687" fill="none" stroke-linecap="round" stroke="url(#linear-gradient-r1)" stroke-width="2.2222222222222223" style="transform-origin: center center; transform: scale(0.9) translate(0px, 458px); transition: all 0.4s cubic-bezier(0.16, 1, 0.3, 1) 0s;"></path><path d="M 1102.1297021402597 366.7660657766233 C1188.3540456919354 744.458373468931 988.8220098325673 902.5114329792611 611.1297021402596 857.7660657766232  C233.43739444795193 813.0206985739853 170.34746058323034 744.458373468931 120.12970214025961 366.7660657766233  C69.91194369728888 -10.926241915684386 233.43739444795193 2.3337038349354486 611.1297021402596 -124.2339342233767  C988.8220098325673 -250.80157228168886 1015.9053585885841 -10.926241915684386 1102.1297021402597 366.7660657766233" fill="none" stroke-linecap="round" stroke="url(#linear-gradient-r1)" stroke-width="2" style="transform-origin: center center; transform: scale(0.9) translate(0px, 458px); transition: all 0.4s cubic-bezier(0.16, 1, 0.3, 1) 0s;"></path><path d="M 1084.4872778978354 367.72061123116873 C1168.0208743962905 730.7975343080918 975.5642009747585 883.0696388389032 612.4872778978354 839.7206112311687  C249.41035482091235 796.3715836234343 189.1379233888962 730.7975343080918 140.48727789783538 367.72061123116873  C91.83663240677456 4.6436881542456945 249.41035482091235 18.338535263135483 612.4872778978354 -104.27938876883127  C975.5642009747585 -226.89731280079803 1000.9536813993802 4.6436881542456945 1084.4872778978354 367.72061123116873" fill="none" stroke-linecap="round" stroke="url(#linear-gradient-r1)" stroke-width="1.8181818181818181" style="transform-origin: center center; transform: scale(0.9) translate(0px, 458px); transition: all 0.4s cubic-bezier(0.16, 1, 0.3, 1) 0s;"></path><path d="M 1066.6359958465532 368.5283035388611 C1147.823866326199 716.9898420003996 962.0975343080918 863.6600371928818 613.6359958465533 821.5283035388611  C265.1744573850149 779.3965698848405 207.92047144018426 716.9898420003996 160.63599584655333 368.5283035388611  C113.35152025292241 20.066765077322657 265.1744573850149 34.702965615987 613.6359958465533 -84.47169646113889  C962.0975343080918 -203.6463585382648 985.4481253669073 20.066765077322657 1066.6359958465532 368.5283035388611" fill="none" stroke-linecap="round" stroke="url(#linear-gradient-r1)" stroke-width="1.6666666666666667" style="transform-origin: center center; transform: scale(0.9) translate(0px, 458px); transition: all 0.4s cubic-bezier(0.16, 1, 0.3, 1) 0s;"></path><path d="M 1048.6206112311688 369.22061123116873 C1127.7400620367548 703.0667650773225 948.4667650773225 844.2789566280842 614.6206112311687 803.2206112311687  C280.7744573850149 762.1622658342533 226.700422396263 703.0667650773225 180.6206112311687 369.22061123116873  C134.5408000660744 35.37445738501492 280.7744573850149 51.35906587689564 614.6206112311687 -64.77938876883127  C948.4667650773225 -180.91784341455818 969.5011604255827 35.37445738501492 1048.6206112311688 369.22061123116873" fill="none" stroke-linecap="round" stroke="url(#linear-gradient-r1)" stroke-width="1.5384615384615385" style="transform-origin: center center; transform: scale(0.9) translate(0px, 458px); transition: all 0.4s cubic-bezier(0.16, 1, 0.3, 1) 0s;"></path><path d="M 1030.473944564502 369.82061123116875 C1107.7517041350159 689.0513804619379 934.7047137952713 824.9232271067826 615.4739445645021 784.8206112311688  C296.24317533373284 744.7179953555549 245.4811397865829 689.0513804619379 200.47394456450206 369.82061123116875  C155.46674934242122 50.58984200039953 296.24317533373284 68.25567029214301 615.4739445645021 -45.179388768831245  C934.7047137952713 -158.6144478298055 953.1961849939883 50.58984200039953 1030.473944564502 369.82061123116875" fill="none" stroke-linecap="round" stroke="url(#linear-gradient-r1)" stroke-width="1.4285714285714286" style="transform-origin: center center; transform: scale(0.9) translate(0px, 458px); transition: all 0.4s cubic-bezier(0.16, 1, 0.3, 1) 0s;"></path><path d="M 1012.2206112311686 370.34561123116873 C1087.844794321601 674.9609958465533 920.8359958465533 805.5901180884804 616.2206112311686 766.3456112311687  C311.60522661578403 727.1011043738571 264.26475007238025 674.9609958465533 220.22061123116862 370.34561123116873  C176.17647238995698 65.73022661578415 311.60522661578403 85.35340600909005 616.2206112311686 -25.654388768831268  C920.8359958465533 -136.6621835467526 936.5964281407362 65.73022661578415 1012.2206112311686 370.34561123116873" fill="none" stroke-linecap="round" stroke="url(#linear-gradient-r1)" stroke-width="1.3333333333333333" style="transform-origin: center center; transform: scale(0.9) translate(0px, 458px); transition: all 0.4s cubic-bezier(0.16, 1, 0.3, 1) 0s;"></path><path d="M 993.8794347605805 370.80884652528636 C1068.0081152944363 660.8088465252863 906.8794347605805 786.2772754411474 616.8794347605805 747.8088465252863  C326.87943476058047 709.3404176094252 283.05258075866294 660.8088465252863 239.87943476058047 370.80884652528636  C196.70628876249796 80.80884652528636 326.87943476058047 102.62141176014195 616.8794347605805 -6.191153474713644  C906.8794347605805 -115.00371870956924 919.7507542267248 80.80884652528636 993.8794347605805 370.80884652528636" fill="none" stroke-linecap="round" stroke="url(#linear-gradient-r1)" stroke-width="1.25" style="transform-origin: center center; transform: scale(0.9) translate(0px, 458px); transition: all 0.4s cubic-bezier(0.16, 1, 0.3, 1) 0s;"></path><path d="M 975.4650556756131 371.22061123116873 C1048.232549307225 646.6052266157841 892.8496710602285 766.9826641369206 617.4650556756131 729.2206112311687  C342.0804402909978 691.4585583254169 301.84543535925394 646.6052266157841 259.46505567561314 371.22061123116873  C217.08467599197235 95.83599584655337 342.0804402909978 120.03510719606624 617.4650556756131 13.220611231168732  C892.8496710602285 -93.59388473372877 902.6975620440012 95.83599584655337 975.4650556756131 371.22061123116873" fill="none" stroke-linecap="round" stroke="url(#linear-gradient-r1)" stroke-width="1.1764705882352942" style="transform-origin: center center; transform: scale(0.9) translate(0px, 458px); transition: all 0.4s cubic-bezier(0.16, 1, 0.3, 1) 0s;"></path><path d="M 956.9890322838003 371.5890322838003 C1028.5105919894602 632.3582630530311 878.758263053031 747.7045187011272 617.9890322838003 710.5890322838003  C357.2198015145695 673.4735458664734 320.64376992307035 632.3582630530311 278.98903228380027 371.5890322838003  C237.33429464453022 110.81980151456952 357.2198015145695 137.57463738460018 617.9890322838003 32.58903228380029  C878.758263053031 -72.39657281699958 885.4674725781405 110.81980151456952 956.9890322838003 371.5890322838003" fill="none" stroke-linecap="round" stroke="url(#linear-gradient-r1)" stroke-width="1.1111111111111112" style="transform-origin: center center; transform: scale(0.9) translate(0px, 458px); transition: all 0.4s cubic-bezier(0.16, 1, 0.3, 1) 0s;"></path><path d="M 938.4606112311686 371.9206112311687 C1008.8359981918175 618.0744573850149 864.6144573850147 728.4413013503663 618.4606112311686 691.9206112311688  C372.3067650773225 655.3999211119713 339.44780854862245 618.0744573850149 298.4606112311686 371.9206112311687  C257.4734139137148 125.76676507732259 372.3067650773225 155.22376366063094 618.4606112311686 51.92061123116872  C864.6144573850147 -51.38254119829351 868.0852242705198 125.76676507732259 938.4606112311686 371.9206112311687" fill="none" stroke-linecap="round" stroke="url(#linear-gradient-r1)" stroke-width="1.0526315789473684" style="transform-origin: center center; transform: scale(0.9) translate(0px, 458px); transition: all 0.4s cubic-bezier(0.16, 1, 0.3, 1) 0s;"></path><path d="M 919.8872778978354 372.22061123116873 C989.2035192300688 603.7590727696303 850.4257394362969 709.1916670114731 618.8872778978354 673.2206112311687  C387.3488163593738 637.2495554508644 358.2576201934609 603.7590727696303 317.88727789783536 372.22061123116873  C277.5169356022098 140.6821496927072 387.3488163593738 172.9690570078863 618.8872778978354 71.22061123116873  C850.4257394362969 -30.527834545548828 850.571036565602 140.6821496927072 919.8872778978354 372.22061123116873" fill="none" stroke-linecap="round" stroke="url(#linear-gradient-r1)" stroke-width="1" style="transform-origin: center center; transform: scale(0.9) translate(0px, 458px); transition: all 0.4s cubic-bezier(0.16, 1, 0.3, 1) 0s;"></path></g></g></svg>